<?xml version="1.0" standalone="no"?>
<!DOCTYPE svg PUBLIC "-//W3C//DTD SVG 20010904//EN"
 "http://www.w3.org/TR/2001/REC-SVG-20010904/DTD/svg10.dtd">
<svg version="1.0" xmlns="http://www.w3.org/2000/svg"
 width="200.000000pt" height="55.000000pt" viewBox="0 0 200.000000 55.000000"
 preserveAspectRatio="xMidYMid meet">
<metadata>
Created by potrace 1.15, written by Peter Selinger 2001-2017
</metadata>
<g transform="translate(0.000000,55.000000) scale(0.100000,-0.100000)"
fill="#000000" stroke="none">
<path d="M684 523 c-16 -24 -19 -48 -19 -161 0 -99 -3 -132 -12 -132 -7 0 -13
-4 -13 -10 0 -5 -6 -10 -14 -10 -22 0 -39 66 -33 121 5 44 4 49 -13 49 -13 0
-20 7 -20 20 0 11 -5 20 -11 20 -8 0 -10 -20 -7 -67 3 -38 4 -82 1 -100 l-5
-31 -34 20 c-28 17 -157 49 -302 75 -49 9 -47 19 4 32 37 9 50 9 63 -1 44 -35
63 -41 80 -23 12 13 13 19 4 22 -18 6 -16 48 2 67 8 8 15 18 15 23 0 13 -103
7 -131 -8 -13 -7 -32 -12 -42 -10 -29 4 -89 -20 -127 -50 -19 -16 -43 -29 -52
-29 -12 0 -18 -8 -18 -24 0 -17 6 -25 18 -24 37 0 250 -23 302 -33 56 -11 130
-27 163 -36 30 -8 15 -24 -43 -45 -63 -23 -157 -25 -198 -5 -50 26 -101 28
-123 6 -10 -10 -24 -19 -29 -19 -6 0 -10 -4 -10 -10 0 -5 -11 -10 -24 -10 -14
0 -28 -4 -31 -10 -7 -11 -10 -11 100 -15 44 -2 116 -7 160 -10 49 -4 95 -2
120 5 39 11 85 30 95 40 27 27 35 27 36 1 1 -31 32 -83 44 -76 5 3 6 21 3 40
-9 54 4 42 38 -35 28 -62 41 -76 66 -67 12 3 3 39 -17 67 -23 33 -34 70 -21
70 6 0 11 -5 11 -11 0 -6 15 -8 43 -4 29 5 51 2 72 -9 17 -9 42 -16 56 -16 20
0 30 -7 39 -30 7 -17 15 -30 19 -30 3 0 6 47 6 104 0 57 3 107 6 110 3 4 27
-3 53 -14 39 -16 48 -17 52 -5 11 27 -2 50 -34 61 -52 17 -57 26 -38 83 20 63
21 101 1 101 -8 0 -15 -8 -15 -19 0 -11 -7 -18 -17 -17 -11 1 -21 -12 -29 -43
-18 -60 -30 -71 -78 -71 -56 0 -86 -10 -86 -26 0 -18 32 -32 38 -16 5 16 74
15 96 -1 14 -10 16 -25 14 -82 l-3 -70 -16 44 c-17 51 -39 66 -39 27 0 -27
-24 -46 -58 -46 -34 0 -48 63 -44 193 2 59 20 100 54 125 10 7 18 24 18 38 0
21 -5 24 -34 24 -26 0 -38 -7 -52 -27z"/>
<path d="M1135 540 c-4 -6 -5 -23 -4 -38 2 -15 -2 -37 -9 -49 -7 -12 -11 -32
-11 -45 1 -32 -8 -117 -16 -151 -10 -37 1 -72 27 -97 19 -18 21 -22 8 -30 -8
-5 -27 -10 -41 -10 -14 0 -34 -6 -45 -14 -17 -13 -13 -14 38 -9 55 5 58 4 69
-21 15 -33 33 -34 25 -1 -8 31 4 32 85 5 67 -23 197 -36 251 -26 29 5 37 12
41 34 6 31 -17 56 -43 46 -33 -13 -121 -23 -155 -17 -25 4 -35 11 -35 24 0 11
4 19 9 19 5 0 6 19 4 43 -4 32 -1 48 11 59 9 9 16 28 16 43 0 15 4 24 10 20
17 -11 50 5 50 24 0 60 -49 110 -122 126 -16 3 -25 10 -23 18 11 29 -35 57
-94 57 -22 0 -43 -5 -46 -10z m119 -110 c-4 -20 -1 -39 10 -55 11 -17 17 -45
16 -83 -1 -31 2 -82 6 -112 l6 -56 -42 3 c-62 3 -70 14 -70 99 0 40 4 83 9 96
6 13 12 40 16 61 3 20 16 46 27 57 28 26 29 26 22 -10z"/>
<path d="M1555 498 c-28 -16 -41 -34 -75 -105 -25 -53 -35 -65 -70 -79 -27
-11 -40 -22 -40 -35 0 -23 13 -24 34 -4 22 22 35 18 42 -13 3 -15 8 -33 10
-41 2 -7 -1 -20 -7 -28 -10 -11 -8 -18 9 -33 12 -11 25 -20 30 -20 15 0 22 41
11 61 -5 10 -9 30 -9 44 0 23 2 25 15 11 8 -8 15 -19 15 -25 0 -6 11 -11 24
-11 13 0 26 -5 28 -12 8 -24 38 1 38 32 0 18 -4 29 -10 25 -16 -10 -90 38 -90
58 0 19 35 75 55 89 30 22 34 -12 6 -59 -11 -17 -17 -34 -14 -37 11 -10 61 -7
69 5 11 18 -7 158 -23 174 -17 18 -22 18 -48 3z"/>
<path d="M1742 279 c-51 -15 -96 -43 -107 -67 -5 -12 -13 -22 -17 -22 -5 0 -8
-6 -8 -14 0 -8 -13 -17 -30 -21 -16 -4 -30 -10 -30 -15 0 -14 32 -21 46 -9 13
11 29 5 54 -21 14 -14 82 -30 127 -30 59 0 119 19 180 58 36 23 43 32 43 60 0
17 -4 32 -10 32 -5 0 -10 -4 -10 -10 0 -5 -5 -10 -11 -10 -13 0 -39 -25 -39
-38 0 -5 -9 -17 -21 -28 -16 -14 -37 -18 -99 -19 -90 0 -108 16 -34 28 47 8
86 33 105 69 7 14 1 22 -34 43 -47 27 -55 28 -105 14z"/>
</g>
</svg>
